<?xml version="1.0" encoding="iso-8859-1"?>
<!-- Generator: Adobe Illustrator 19.0.0, SVG Export Plug-In . SVG Version: 6.00 Build 0)  -->
<svg version="1.1" id="Layer_1" xmlns="http://www.w3.org/2000/svg" xmlns:xlink="http://www.w3.org/1999/xlink" x="0px" y="0px"
	 viewBox="0 0 512 512" style="enable-background:new 0 0 512 512;" xml:space="preserve">
<g>
	<g>
		<path d="M256,0C114.842,0,0,114.842,0,256s114.842,256,256,256s256-114.842,256-256S397.158,0,256,0z M256,478.609
			c-122.746,0-222.609-99.862-222.609-222.609S133.254,33.391,256,33.391S478.609,133.254,478.609,256S378.746,478.609,256,478.609z
			"/>
	</g>
</g>
<g>
	<g>
		<path d="M256,72.348c-27.618,0-50.087,22.469-50.087,50.087c0,27.618,22.469,50.087,50.087,50.087
			c27.618,0,50.087-22.469,50.087-50.087C306.087,94.817,283.618,72.348,256,72.348z M256,139.13
			c-9.206,0-16.696-7.49-16.696-16.696c0-9.206,7.49-16.696,16.696-16.696c9.206,0,16.696,7.49,16.696,16.696
			C272.696,131.641,265.206,139.13,256,139.13z"/>
	</g>
</g>
<g>
	<g>
		<path d="M256,205.913c-27.618,0-50.087,22.469-50.087,50.087v133.565c0,27.618,22.469,50.087,50.087,50.087
			c27.618,0,50.087-22.469,50.087-50.087V256C306.087,228.382,283.618,205.913,256,205.913z M272.696,389.565
			c0,9.206-7.49,16.696-16.696,16.696c-9.206,0-16.696-7.49-16.696-16.696V256c0-9.206,7.49-16.696,16.696-16.696
			c9.206,0,16.696,7.49,16.696,16.696V389.565z"/>
	</g>
</g>
<g>
</g>
<g>
</g>
<g>
</g>
<g>
</g>
<g>
</g>
<g>
</g>
<g>
</g>
<g>
</g>
<g>
</g>
<g>
</g>
<g>
</g>
<g>
</g>
<g>
</g>
<g>
</g>
<g>
</g>
</svg>
