<svg xmlns="http://www.w3.org/2000/svg" xmlns:xlink="http://www.w3.org/1999/xlink" width="273" height="124" viewBox="0 0 273 124">
  <defs>
    <clipPath id="clip-path">
      <rect id="Rectangle_27" data-name="Rectangle 27" width="273" height="124" transform="translate(140 866)" fill="#fff" stroke="#707070" stroke-width="1"/>
    </clipPath>
  </defs>
  <g id="Mask_Group_1" data-name="Mask Group 1" transform="translate(-140 -866)" clip-path="url(#clip-path)">
    <g id="polygon-logo.99647ca" transform="translate(140 899.303)">
      <path id="Path_8" data-name="Path 8" d="M48.351,17.534a3.97,3.97,0,0,0-4.019,0l-9.221,5.582-6.266,3.64-9.221,5.582a3.97,3.97,0,0,1-4.019,0l-7.33-4.368a4.2,4.2,0,0,1-2.01-3.519V15.835a3.952,3.952,0,0,1,2.01-3.519l7.211-4.247a3.97,3.97,0,0,1,4.019,0l7.211,4.247a4.2,4.2,0,0,1,2.01,3.519v5.582l6.266-3.762V12.073a3.952,3.952,0,0,0-2.01-3.519L19.624.546a3.97,3.97,0,0,0-4.019,0L2.01,8.554A3.952,3.952,0,0,0,0,12.073V28.211A3.952,3.952,0,0,0,2.01,31.73l13.6,8.008a3.969,3.969,0,0,0,4.019,0l9.221-5.46,6.266-3.761,9.221-5.46a3.97,3.97,0,0,1,4.019,0L55.563,29.3a4.2,4.2,0,0,1,2.01,3.519v8.615a3.952,3.952,0,0,1-2.01,3.519l-7.211,4.368a3.97,3.97,0,0,1-4.019,0l-7.211-4.247a4.2,4.2,0,0,1-2.01-3.519V35.977l-6.266,3.761V45.32a3.952,3.952,0,0,0,2.01,3.519l13.6,8.009a3.97,3.97,0,0,0,4.019,0l13.6-8.009a4.2,4.2,0,0,0,2.01-3.519V29.182a3.952,3.952,0,0,0-2.01-3.519Z" fill="#7950dd"/>
      <path id="Path_9" data-name="Path 9" d="M89.036,52.233v-13.4c1.442,1.829,4.058,2.852,7.1,2.852,7.742,0,12.975-5.542,12.975-13.99s-4.806-13.99-12.334-13.99a9.365,9.365,0,0,0-7.742,3.39V14.138H81.614v38.1Zm6.194-17c-4,0-6.621-3.013-6.621-7.533,0-4.574,2.616-7.587,6.621-7.587,3.9,0,6.568,3.013,6.568,7.587C101.8,32.217,99.127,35.23,95.229,35.23Z"/>
      <path id="Path_10" data-name="Path 10" d="M125.966,41.687c8.276,0,14.2-5.919,14.2-13.99s-5.927-13.99-14.2-13.99-14.2,5.919-14.2,13.99S117.689,41.687,125.966,41.687Zm0-6.457c-4,0-6.728-3.067-6.728-7.533,0-4.52,2.723-7.587,6.728-7.587s6.728,3.067,6.728,7.587C132.694,32.163,129.97,35.23,125.966,35.23Z"/>
      <path id="Path_11" data-name="Path 11" d="M152.078,41.256V2.354h-7.422v38.9Z"/>
      <path id="Path_12" data-name="Path 12" d="M174.388,14.138l-5.606,17.487-5.66-17.487H155.54l9.771,26.9L161.36,52.233h7.1l3.791-11.084,9.771-27.011Z"/>
      <path id="Path_13" data-name="Path 13" d="M202.869,16.828a9.331,9.331,0,0,0-7.422-3.121c-7.85,0-12.6,5.542-12.6,13.99s4.751,13.99,12.707,13.99c3.151,0,5.98-1.184,7.37-3.175v3.551c0,2.529-1.655,4.3-3.9,4.3H186.635v5.865H200.2c6.087,0,10.146-3.713,10.146-9.362V14.138h-7.476Zm-6.141,18.4c-3.951,0-6.568-2.959-6.568-7.533s2.617-7.587,6.568-7.587c4.005,0,6.622,3.013,6.622,7.587S200.732,35.23,196.727,35.23Z"/>
      <path id="Path_14" data-name="Path 14" d="M229.054,41.687c8.277,0,14.2-5.919,14.2-13.99s-5.926-13.99-14.2-13.99-14.2,5.919-14.2,13.99S220.779,41.687,229.054,41.687Zm0-6.457c-4.005,0-6.728-3.067-6.728-7.533,0-4.52,2.723-7.587,6.728-7.587s6.728,3.067,6.728,7.587C235.782,32.163,233.059,35.23,229.054,35.23Z"/>
      <path id="Path_15" data-name="Path 15" d="M254.794,41.256V26.406c0-3.5,2.3-6.026,5.553-6.026,3.1,0,5.178,2.367,5.178,5.65V41.256H273v-16.9c0-6.242-3.951-10.654-10.038-10.654-3.684,0-6.674,1.56-8.168,4.2V14.138h-7.476V41.256Z"/>
    </g>
  </g>
</svg>
