<svg xmlns="http://www.w3.org/2000/svg" width="836.16" height="639.34" viewBox="0 0 836.16 639.34">
  <path id="Path_6" data-name="Path 6" d="M817.25,81.685c-64.356,7.668-154.73,120.007-196.344,213.773s-40.828,281.965,71.487,381.033c96.448,96.175,102.634-98.948,153.446-76.917,39.24,17.013,84.4,39.358,137.9,45.285,21,2.328,78.557,13.6,89.968,0,41.081-48.973,73.224-15.253,112.671-6.745,35.573,7.673,65.369-50.684,95.854-38.541,64.18,25.566,160.45-155.173,134.407-245.261s-123.011-226.9-123.011-226.9l-142.564-45.73S881.606,74.017,817.25,81.685Z" transform="matrix(1, -0.017, 0.017, 1, -596.898, -53.465)" fill="#406f89" opacity="0.11"/>
</svg>
