<svg xmlns="http://www.w3.org/2000/svg" xmlns:xlink="http://www.w3.org/1999/xlink" width="273" height="124" viewBox="0 0 273 124">
  <defs>
    <clipPath id="clip-path">
      <rect id="Rectangle_27" data-name="Rectangle 27" width="273" height="124" transform="translate(1567 866)" fill="#fff" stroke="#707070" stroke-width="1"/>
    </clipPath>
  </defs>
  <g id="Mask_Group_2" data-name="Mask Group 2" transform="translate(-1567 -866)" clip-path="url(#clip-path)">
    <g id="Website-Desktop-" transform="translate(1567 895.426)">
      <g id="Main-Page" transform="translate(-212.94 -101.556)">
        <g id="Logo_Full_Dark" data-name="Logo/Full/Dark" transform="translate(212.94 101.556)">
          <g id="Logo">
            <path id="Fill-1" d="M102.236,36.144V23.627h6.1V36.642a4.068,4.068,0,0,0,4.247,4.293,4,4,0,0,0,2.982-1.2,4.233,4.233,0,0,0,1.175-3.1V23.627h6.1V36.144a10.106,10.106,0,0,1-2.915,7.5,9.994,9.994,0,0,1-7.343,2.893,9.914,9.914,0,0,1-10.349-10.394" fill="#12141e" fill-rule="evenodd"/>
            <path id="Fill-2" d="M143.036,34.834a6.24,6.24,0,0,0-1.627-4.475,5.867,5.867,0,0,0-8.2-.09,6.155,6.155,0,0,0-1.6,4.519,6.23,6.23,0,0,0,1.6,4.54,5.4,5.4,0,0,0,4.045,1.65,5.492,5.492,0,0,0,4.134-1.718A6.126,6.126,0,0,0,143.036,34.834Zm3.1-8.382a11.754,11.754,0,0,1,3.1,8.337,11.917,11.917,0,0,1-3.1,8.382,10.087,10.087,0,0,1-7.75,3.367,8.628,8.628,0,0,1-6.688-2.711v10.3h-6.1v-30.5h5.6v2.8q2.3-3.3,7.185-3.3a10.147,10.147,0,0,1,7.75,3.322Z" fill="#12141e" fill-rule="evenodd"/>
            <path id="Fill-3" d="M157.584,32.574h10.168a4.343,4.343,0,0,0-1.425-3.276,4.907,4.907,0,0,0-3.411-1.242,5.091,5.091,0,0,0-3.389,1.22A5.988,5.988,0,0,0,157.584,32.574Zm15.68,4.293h-15.68a5.488,5.488,0,0,0,2.191,3.276,6.961,6.961,0,0,0,4.09,1.153,10.059,10.059,0,0,0,6.236-2.26l2.531,4.158a13.656,13.656,0,0,1-8.948,3.344,11.827,11.827,0,0,1-8.744-3.367,10.852,10.852,0,0,1-3.5-8.337,11.574,11.574,0,0,1,11.7-11.7,10.2,10.2,0,0,1,7.568,2.982,10.1,10.1,0,0,1,2.96,7.412,14.522,14.522,0,0,1-.406,3.343Z" fill="#12141e" fill-rule="evenodd"/>
            <path id="Fill-4" d="M190.067,23.627V29H188.44a6.215,6.215,0,0,0-4.406,1.492,5.626,5.626,0,0,0-1.6,4.338V46h-6.1V23.627h5.6v2.666a7.5,7.5,0,0,1,6.146-2.936,6.628,6.628,0,0,1,1.989.27" fill="#12141e" fill-rule="evenodd"/>
            <path id="Fill-5" d="M207.367,46h6.1V11.562h-6.1Zm-2.914-34.434V17.03h-1.469a4.79,4.79,0,0,0-3.1.813,3.3,3.3,0,0,0-.971,2.666v3.118h5.536v5.152h-5.536V46h-6.1V19.967q0-4.157,2.26-6.282a8.947,8.947,0,0,1,6.372-2.124Z" fill="#12141e" fill-rule="evenodd"/>
            <path id="Fill-6" d="M216.438,36.144V23.627h6.1V36.642a4.068,4.068,0,0,0,4.247,4.293,4,4,0,0,0,2.983-1.2,4.233,4.233,0,0,0,1.174-3.1V23.627h6.1V36.144a10.1,10.1,0,0,1-2.914,7.5,9.995,9.995,0,0,1-7.343,2.893,9.915,9.915,0,0,1-10.349-10.394" fill="#12141e" fill-rule="evenodd"/>
            <path id="Fill-7" d="M240.017,46h6.1V23.627h-6.1Z" fill="#12141e" fill-rule="evenodd"/>
            <path id="Fill-8" d="M265.387,39.352a6.161,6.161,0,0,0,1.6-4.518,6.188,6.188,0,0,0-1.627-4.542,5.428,5.428,0,0,0-4.023-1.649,5.5,5.5,0,0,0-4.134,1.716,6.128,6.128,0,0,0-1.649,4.429,6.237,6.237,0,0,0,1.627,4.473,5.866,5.866,0,0,0,8.2.09ZM266.9,11.562H273V46h-5.6V43.239q-2.3,3.3-7.184,3.3a10.128,10.128,0,0,1-7.772-3.322,11.854,11.854,0,0,1-3.073-8.382,11.854,11.854,0,0,1,3.073-8.382,10.125,10.125,0,0,1,7.772-3.322A8.619,8.619,0,0,1,266.9,25.8V11.562Z" fill="#12141e" fill-rule="evenodd"/>
            <path id="Fill-9" d="M92.693,28.869,89.3,27.378a10.685,10.685,0,0,1-2.734-1.605,2.392,2.392,0,0,1-.746-1.829,2.939,2.939,0,0,1,.032-.317h-6.2c-.007.151-.021.3-.021.452q0,5.378,7.23,8.586l3.208,1.446a13.116,13.116,0,0,1,3.028,1.74,2.526,2.526,0,0,1,.769,1.965,2.9,2.9,0,0,1-1.13,2.418,4.954,4.954,0,0,1-3.118.881q-4.158,0-7.321-4.338L78.1,39.94a12.972,12.972,0,0,0,11.523,6.6,11.277,11.277,0,0,0,7.5-2.463,8.05,8.05,0,0,0,2.937-6.485A7.306,7.306,0,0,0,98.3,32.6a16.211,16.211,0,0,0-5.6-3.729" fill="#12141e" fill-rule="evenodd"/>
            <path id="Fill-10" d="M100.059,14.751H91.183v4.438h4.438v4.438h4.438V14.751" fill="#12141e" fill-rule="evenodd"/>
            <path id="Fill-11" d="M246.119,23.627h6.724V16.9h-6.724Z" fill="#12141e" fill-rule="evenodd"/>
            <path id="Fill-12" d="M50.283,38.5H38.425V26.645H26.567V14.787H50.283ZM14.709,50.361H26.567V38.5H14.709ZM0,7.181V57.967a7.1,7.1,0,0,0,7.1,7.1H57.889a7.1,7.1,0,0,0,7.1-7.1V7.181a7.1,7.1,0,0,0-7.1-7.1H7.1A7.1,7.1,0,0,0,0,7.181Z" fill="#12141e" fill-rule="evenodd"/>
          </g>
        </g>
      </g>
    </g>
  </g>
</svg>
